<svg width="48" height="48" viewBox="0 0 48 48" fill="none" xmlns="http://www.w3.org/2000/svg">
<path d="M24.0001 26.8L14.2001 36.6C13.8334 36.9667 13.3668 37.15 12.8001 37.15C12.2334 37.15 11.7668 36.9667 11.4001 36.6C11.0334 36.2333 10.8501 35.7667 10.8501 35.2C10.8501 34.6333 11.0334 34.1667 11.4001 33.8L21.2001 24L11.4001 14.2C11.0334 13.8333 10.8501 13.3667 10.8501 12.8C10.8501 12.2333 11.0334 11.7667 11.4001 11.4C11.7668 11.0333 12.2334 10.85 12.8001 10.85C13.3668 10.85 13.8334 11.0333 14.2001 11.4L24.0001 21.2L33.8001 11.4C34.1668 11.0333 34.6334 10.85 35.2001 10.85C35.7668 10.85 36.2334 11.0333 36.6001 11.4C36.9668 11.7667 37.1501 12.2333 37.1501 12.8C37.1501 13.3667 36.9668 13.8333 36.6001 14.2L26.8001 24L36.6001 33.8C36.9668 34.1667 37.1501 34.6333 37.1501 35.2C37.1501 35.7667 36.9668 36.2333 36.6001 36.6C36.2334 36.9667 35.7668 37.15 35.2001 37.15C34.6334 37.15 34.1668 36.9667 33.8001 36.6L24.0001 26.8Z" fill="url(#paint0_linear_45_149)"/>
<defs>
<linearGradient id="paint0_linear_45_149" x1="24.0001" y1="10.85" x2="24.0001" y2="37.15" gradientUnits="userSpaceOnUse">
<stop stop-color="#009F66"/>
<stop offset="1" stop-color="#00FFA3"/>
</linearGradient>
</defs>
</svg>
