<svg width="77" height="22" viewBox="0 0 77 22" fill="none" xmlns="http://www.w3.org/2000/svg">
<path d="M6.58798 21.204C4.88398 21.204 3.55198 20.964 2.59198 20.484C1.63198 20.004 0.959981 19.284 0.575981 18.324C0.191981 17.364 -1.95205e-05 16.176 -1.95205e-05 14.76V6.732C-1.95205e-05 4.428 0.515981 2.736 1.54798 1.656C2.57998 0.552001 4.25998 7.15256e-07 6.58798 7.15256e-07H17.424C19.08 7.15256e-07 20.34 0.0960009 21.204 0.288001C22.092 0.456002 22.536 0.636002 22.536 0.828001L21.816 3.816C21.408 3.744 20.196 3.672 18.18 3.6C16.188 3.504 13.284 3.456 9.46798 3.456H7.63198C5.71198 3.456 4.75198 4.308 4.75198 6.012V15.192C4.75198 16.008 4.95598 16.644 5.36398 17.1C5.79598 17.532 6.55198 17.748 7.63198 17.748H9.10798C11.412 17.748 13.356 17.736 14.94 17.712C16.524 17.664 17.832 17.628 18.864 17.604V12.708L16.704 12.744L11.988 13.104V9.576H23.58V19.692L23.94 20.448C23.94 20.64 23.436 20.82 22.428 20.988C21.42 21.132 19.716 21.204 17.316 21.204H6.58798ZM36.2132 21.204L36.1772 3.456H26.8172V7.15256e-07H50.3612V3.456H40.9652V21.204H36.2132ZM58.0053 21.204C56.3733 21.204 55.1733 21.132 54.4053 20.988C53.6373 20.844 53.2533 20.676 53.2533 20.484L54.6933 17.352C55.2453 17.448 56.6133 17.544 58.7973 17.64C61.0053 17.712 64.0293 17.748 67.8693 17.748H68.5533C69.5853 17.748 70.3173 17.568 70.7493 17.208C71.1813 16.824 71.3973 16.188 71.3973 15.3V14.58C71.3973 13.74 71.2173 13.14 70.8573 12.78C70.5213 12.42 69.7533 12.24 68.5533 12.24H60.2013C57.7773 12.24 56.0133 11.796 54.9093 10.908C53.8053 9.996 53.2533 8.52 53.2533 6.48V5.904C53.2533 4.848 53.4453 3.876 53.8293 2.988C54.2373 2.1 54.9213 1.392 55.8813 0.864002C56.8413 0.312002 58.1613 0.0360024 59.8413 0.0360024H69.6333C71.2653 0.0360024 72.5853 0.120002 73.5933 0.288001C74.6013 0.456002 75.1053 0.636002 75.1053 0.828001L74.3853 3.852C73.7613 3.78 72.3453 3.708 70.1373 3.636C67.9293 3.54 64.9653 3.492 61.2453 3.492L60.8493 3.456C59.7453 3.456 59.0013 3.684 58.6173 4.14C58.2333 4.572 58.0293 5.124 58.0053 5.796V6.408C58.0053 7.2 58.2213 7.8 58.6533 8.208C59.1093 8.592 59.8533 8.784 60.8853 8.784H68.8773C70.4133 8.784 71.7213 8.94 72.8013 9.252C73.8813 9.564 74.7093 10.14 75.2853 10.98C75.8613 11.796 76.1493 13.008 76.1493 14.616V15.192C76.1493 16.992 75.6813 18.444 74.7453 19.548C73.8333 20.652 72.2373 21.204 69.9573 21.204H58.0053Z" fill="url(#paint0_linear_8_177)"/>
<defs>
<linearGradient id="paint0_linear_8_177" x1="37.98" y1="32.204" x2="37.98" y2="-10.796" gradientUnits="userSpaceOnUse">
<stop stop-color="#00FFA3"/>
<stop offset="1" stop-color="#009F66"/>
</linearGradient>
</defs>
</svg>
